<svg class="refSvg fableSvg" viewBox="0 0 320 160" preserveAspectRatio="xMidYMid slice" xmlns="http://www.w3.org/2000/svg" role="img" aria-label="fable preview"><defs><linearGradient id="fk44919" x1="0" y1="0" x2="0" y2="1"><stop offset="0" stop-color="#090c14"></stop><stop offset="1" stop-color="#0c111b"></stop></linearGradient></defs><rect x="0" y="0" width="320" height="160" fill="url(#fk44919)"></rect><rect x="0" y="0" width="160" height="160" fill="#ffd34e" opacity="0.1"></rect><rect x="160" y="0" width="160" height="160" fill="#0c111b" opacity="0.18"></rect><line x1="160" y1="0" x2="160" y2="160" stroke="#ffffff" stroke-width="1" stroke-linecap="round" opacity="0.3"></line><circle cx="72" cy="36" r="32.4" fill="#ffe9a7" opacity="0.16"></circle><circle cx="72" cy="36" r="18" fill="#ffffff"></circle><circle cx="79.56" cy="32.4" r="14.76" fill="#090c14" opacity="0.55"></circle><path d="M163.18 98.32 Q160.7 119.4 161.94 135.52 L166.9 138 L169.38 119.4 L171.86 138 L176.82 135.52 Q179.3 119.4 176.82 98.32 Z" fill="#06090f"></path><line x1="163.8" y1="104.52" x2="151.4" y2="111.96000000000001" stroke="#06090f" stroke-width="4.340000000000001" stroke-linecap="round"></line><line x1="176.2" y1="104.52" x2="188.6" y2="111.96000000000001" stroke="#06090f" stroke-width="4.340000000000001" stroke-linecap="round"></line><circle cx="170" cy="83.75" r="7.75" fill="#06090f"></circle><path d="M161.475 79.875 L164.10999999999999 73.025 L166.9 80.65 Z" fill="#ffd34e"></path><path d="M165.7375 79.875 L168.3725 71.025 L171.16250000000002 80.65 Z" fill="#ffd34e"></path><path d="M170 79.875 L172.635 69.025 L175.425 80.65 Z" fill="#ffd34e"></path><path d="M174.2625 79.875 L176.89749999999998 71.025 L179.6875 80.65 Z" fill="#ffd34e"></path><path d="M178.525 79.875 L181.16 73.025 L183.95000000000002 80.65 Z" fill="#ffd34e"></path><circle cx="170" cy="84" r="12" fill="#ffffff" opacity="0.92"></circle><line x1="164" y1="80" x2="168" y2="86" stroke="#b39437" stroke-width="2" stroke-linecap="round"></line><line x1="176" y1="80" x2="172" y2="86" stroke="#b39437" stroke-width="2" stroke-linecap="round"></line><defs><radialGradient id="fg44919" cx="0.5" cy="0.5" r="0.5"><stop offset="0" stop-color="#ffd34e" stop-opacity="0.85"></stop><stop offset="1" stop-color="#ffd34e" stop-opacity="0"></stop></radialGradient></defs><circle cx="170" cy="100" r="52" fill="url(#fg44919)"></circle><circle cx="203" cy="111" r="1.825" fill="#ffd34e" opacity="0.8"></circle><circle cx="50" cy="74" r="1.45" fill="#ffd34e" opacity="0.8"></circle><circle cx="271" cy="125" r="1.7" fill="#ffd34e" opacity="0.8"></circle><circle cx="201" cy="113" r="1.575" fill="#ffd34e" opacity="0.8"></circle><circle cx="251" cy="127" r="1.575" fill="#ffd34e" opacity="0.8"></circle><circle cx="217" cy="122" r="1.45" fill="#ffd34e" opacity="0.8"></circle><defs><radialGradient id="fv44919" cx="0.5" cy="0.42" r="0.75"><stop offset="0.55" stop-color="#000" stop-opacity="0"></stop><stop offset="1" stop-color="#000" stop-opacity="0.4"></stop></radialGradient></defs><rect width="320" height="160" fill="url(#fv44919)"></rect><rect x="0.75" y="0.75" width="318.5" height="158.5" rx="2" fill="none" stroke="#ffffff" stroke-opacity="0.07"></rect></svg>