<svg class="refSvg fableSvg" viewBox="0 0 320 160" preserveAspectRatio="xMidYMid slice" xmlns="http://www.w3.org/2000/svg" role="img" aria-label="fable preview"><defs><linearGradient id="fk96160" x1="0" y1="0" x2="0" y2="1"><stop offset="0" stop-color="#3a3d41"></stop><stop offset="1" stop-color="#94989b"></stop></linearGradient></defs><rect x="0" y="0" width="320" height="160" fill="url(#fk96160)"></rect><circle cx="266" cy="26" r="20.9" fill="#e8cd9b" opacity="0.22"></circle><circle cx="266" cy="26" r="11" fill="#e5e2db"></circle><path d="M0 108 h18 v-26 h12 v10 h16 v-40 h14 v18 h12 v-8 h16 v34 h10 v-52 h16 v24 h12 v-12 h18 v40 h12 v-22 h14 v10 h16 v-30 h14 v22 h12 v-6 h18 v28 h12 v-44 h16 v36 h12 v-14 h20 v32 h10 V160 H0 Z" fill="#0c0e10"></path><path d="M114.72 101.28 Q112.8 117.6 113.76 130.08 L117.6 132 L119.52 117.6 L121.44 132 L125.28 130.08 Q127.2 117.6 125.28 101.28 Z" fill="#0c0e10"></path><line x1="114.72" y1="106.08" x2="112.32" y2="117.6" stroke="#0c0e10" stroke-width="3.3600000000000003" stroke-linecap="round"></line><line x1="125.28" y1="106.08" x2="127.68" y2="117.6" stroke="#0c0e10" stroke-width="3.3600000000000003" stroke-linecap="round"></line><circle cx="120" cy="90" r="6" fill="#0c0e10"></circle><path d="M142.48 111.52 Q141.2 122.4 141.84 130.72 L144.4 132 L145.68 122.4 L146.96 132 L149.52 130.72 Q150.8 122.4 149.52 111.52 Z" fill="#68717d"></path><line x1="142.48" y1="114.72" x2="140.88" y2="122.4" stroke="#68717d" stroke-width="2.24" stroke-linecap="round"></line><line x1="149.52" y1="114.72" x2="151.12" y2="122.4" stroke="#68717d" stroke-width="2.24" stroke-linecap="round"></line><circle cx="146" cy="104" r="4" fill="#68717d"></circle><line x1="220" y1="128" x2="220" y2="84" stroke="#4b525c" stroke-width="2" stroke-linecap="round"></line><path d="M220 84 Q232 88 246 84 L246 98 Q232 102 220 98 Z" fill="#d6a44a"></path><rect x="0" y="132" width="320" height="28" fill="#16191e"></rect><line x1="0" y1="132" x2="320" y2="132" stroke="#edebe6" stroke-width="0.8" stroke-linecap="round" opacity="0.25"></line><defs><radialGradient id="fv96160" cx="0.5" cy="0.42" r="0.75"><stop offset="0.55" stop-color="#000" stop-opacity="0"></stop><stop offset="1" stop-color="#000" stop-opacity="0.4"></stop></radialGradient></defs><rect width="320" height="160" fill="url(#fv96160)"></rect><rect x="0.75" y="0.75" width="318.5" height="158.5" rx="2" fill="none" stroke="#ffffff" stroke-opacity="0.07"></rect></svg>