<svg class="refSvg fableSvg" viewBox="0 0 320 160" preserveAspectRatio="xMidYMid slice" xmlns="http://www.w3.org/2000/svg" role="img" aria-label="fable preview"><defs><linearGradient id="fk53785" x1="0" y1="0" x2="0" y2="1"><stop offset="0" stop-color="#323845"></stop><stop offset="1" stop-color="#9bcaff"></stop></linearGradient></defs><rect x="0" y="0" width="320" height="160" fill="url(#fk53785)"></rect><circle cx="262" cy="30" r="28.5" fill="#ffe79e" opacity="0.22"></circle><circle cx="262" cy="30" r="15" fill="#ffffff"></circle><g transform="translate(60 30) scale(1)"><ellipse cx="0" cy="0" rx="26" ry="9" fill="#ffe9a7" opacity="0.5"></ellipse><ellipse cx="18" cy="-5" rx="18" ry="8" fill="#ffe9a7" opacity="0.5"></ellipse><ellipse cx="-16" cy="-3" rx="14" ry="7" fill="#ffe9a7" opacity="0.45"></ellipse></g><g transform="translate(200 18) scale(0.8)"><ellipse cx="0" cy="0" rx="26" ry="9" fill="#ffe9a7" opacity="0.4"></ellipse><ellipse cx="18" cy="-5" rx="18" ry="8" fill="#ffe9a7" opacity="0.4"></ellipse><ellipse cx="-16" cy="-3" rx="14" ry="7" fill="#ffe9a7" opacity="0.4"></ellipse></g><rect x="0" y="92" width="320" height="68" fill="#0c111b"></rect><path d="M0 100 Q40 94 80 100 T160 100 T240 100 T320 100" fill="none" stroke="#ffe9a7" stroke-width="1.6" stroke-linecap="round" opacity="0.6"></path><path d="M0 114 Q50 107 100 114 T200 114 T320 114" fill="none" stroke="#3c6ea9" stroke-width="1.4" stroke-linecap="round" opacity="0.45"></path><ellipse cx="160" cy="93" rx="170" ry="2.4" fill="#ffffff" opacity="0.35"></ellipse><g transform="translate(0 0)"><g transform="translate(216 96) scale(0.92)"><path d="M-52 0 Q-46 14 -30 16 L34 16 Q50 14 56 2 L46 0 Z" fill="#b39437"></path><path d="M-52 0 L56 2 L52 -4 L-48 -5 Z" fill="#ffe9a7"></path><g transform="translate(56 -2)"><circle cx="0" cy="0" r="9" fill="#ffe79e"></circle><ellipse cx="9" cy="0" rx="4.6" ry="2.6" fill="#ffd34e" opacity="0.95"></ellipse><ellipse cx="6.3639610306789285" cy="6.363961030678928" rx="4.6" ry="2.6" fill="#ffd34e" opacity="0.95"></ellipse><ellipse cx="5.51091059616309e-16" cy="9" rx="4.6" ry="2.6" fill="#ffd34e" opacity="0.95"></ellipse><ellipse cx="-6.363961030678928" cy="6.3639610306789285" rx="4.6" ry="2.6" fill="#ffd34e" opacity="0.95"></ellipse><ellipse cx="-9" cy="1.102182119232618e-15" rx="4.6" ry="2.6" fill="#ffd34e" opacity="0.95"></ellipse><ellipse cx="-6.363961030678929" cy="-6.363961030678928" rx="4.6" ry="2.6" fill="#ffd34e" opacity="0.95"></ellipse><ellipse cx="-1.6532731788489267e-15" cy="-9" rx="4.6" ry="2.6" fill="#ffd34e" opacity="0.95"></ellipse><ellipse cx="6.363961030678926" cy="-6.363961030678929" rx="4.6" ry="2.6" fill="#ffd34e" opacity="0.95"></ellipse><circle cx="0" cy="0" r="6.4" fill="#ffe9a7"></circle><circle cx="2" cy="-1.6" r="1.4" fill="#090c14"></circle></g><rect x="-6" y="-38" width="3.4" height="38" fill="#b39437"></rect><path d="M-3 -36 Q18 -30 20 -10 L-3 -12 Z" fill="#ffffff"></path><path d="M-6 -34 Q-24 -28 -26 -10 L-6 -12 Z" fill="#ffffff" opacity="0.92"></path><line x1="-30" y1="16" x2="34" y2="16" stroke="#090c14" stroke-width="2" stroke-linecap="round" opacity="0.3"></line></g><g transform="translate(206 62) scale(1)"><path d="M0 0 Q10 -22 0 -44 Q26 -34 30 -8 Z" fill="#ffffff" opacity="0.95"></path><path d="M0 4 L0 -46" fill="none" stroke="#ffffff" stroke-width="1.6" stroke-linecap="round" opacity="0.8"></path><path d="M-2 6 L34 6 L28 12 L4 12 Z" fill="#06090f"></path></g></g><path d="M30 132 Q90 96 150 110 T290 70" fill="none" stroke="#ffe79e" stroke-width="2" stroke-linecap="round" opacity="0.9" stroke-dasharray="6 5"></path><circle cx="30" cy="132" r="3.2" fill="#ffe79e"></circle><path d="M290 70 l-9 -2 l4 8 Z" fill="#ffe79e"></path><path d="M77.18 100.32 Q74.7 121.4 75.94 137.52 L80.9 140 L83.38 121.4 L85.86 140 L90.82 137.52 Q93.3 121.4 90.82 100.32 Z" fill="#06090f"></path><line x1="88.96" y1="105.28" x2="110.03999999999999" y2="95.36" stroke="#06090f" stroke-width="4.340000000000001" stroke-linecap="round"></line><line x1="77.8" y1="105.28" x2="71.6" y2="118.92" stroke="#06090f" stroke-width="4.340000000000001" stroke-linecap="round"></line><circle cx="84" cy="85.75" r="7.75" fill="#06090f"></circle><ellipse cx="84" cy="80.945" rx="14.3375" ry="3.875" fill="#ffe9a7"></ellipse><ellipse cx="84" cy="78.3875" rx="8.137500000000001" ry="4.805" fill="#ffe9a7"></ellipse><ellipse cx="84" cy="80.635" rx="8.215" ry="2.3249999999999997" fill="#ffd34e"></ellipse><path d="M77.8 101.56 L75.94 118.92 L81.52 117.68 L80.9 102.80000000000001 Z" fill="#ffd34e"></path><path d="M90.2 101.56 L92.06 118.92 L86.48 117.68 L87.1 102.80000000000001 Z" fill="#ffd34e"></path><defs><radialGradient id="fg53785" cx="0.5" cy="0.5" r="0.5"><stop offset="0" stop-color="#ffe79e" stop-opacity="0.85"></stop><stop offset="1" stop-color="#ffe79e" stop-opacity="0"></stop></radialGradient></defs><circle cx="262" cy="30" r="30" fill="url(#fg53785)"></circle><defs><radialGradient id="fv53785" cx="0.5" cy="0.42" r="0.75"><stop offset="0.55" stop-color="#000" stop-opacity="0"></stop><stop offset="1" stop-color="#000" stop-opacity="0.4"></stop></radialGradient></defs><rect width="320" height="160" fill="url(#fv53785)"></rect><rect x="0.75" y="0.75" width="318.5" height="158.5" rx="2" fill="none" stroke="#ffffff" stroke-opacity="0.07"></rect></svg>